<?xml version="1.0" encoding="iso-8859-1"?>
<!-- Uploaded to: SVG Repo, www.svgrepo.com, Generator: SVG Repo Mixer Tools -->
<svg height="800px" width="800px" version="1.1" id="Layer_1" xmlns="http://www.w3.org/2000/svg" xmlns:xlink="http://www.w3.org/1999/xlink" 
	 viewBox="0 0 506.4 506.4" xml:space="preserve">
<path style="fill:#E36D60;" d="M464.8,326.4h6.4c15.6,0,29.2-16,29.2-33.6v-87.2c0-16-12.4-25.6-29.2-25.6h-3.6l-2.8,1.2V326.4z"/>
<path style="fill:#BC3F2C;" d="M117.2,284.4c47.6,6.8,90,10,132.8,10c42.4,0,84.8-3.2,132-10v-70.8c-47.6-6.8-89.6-10-132-10
	c-42.8,0-85.2,3.6-132.8,10C117.2,214,117.2,284.4,117.2,284.4z"/>
<path style="fill:#CB5A30;" d="M382,253.2v4v27.6c0,0.4,0,0.4,0,0.8s0,0.4,0,0.8v6.8c0,16,14.4,33.6,30.8,33.6h52.4V186.4v-6h-52.8
	c-15.2,0-30.8,8.4-30.8,25.6v6.8c0,0.4,0,0.4,0,0.8s0,0.4,0,0.8v38.8H382z"/>
<path style="fill:#E36D60;" d="M32,180c-15.2,0-29.6,8.4-29.6,25.6v87.2c0,16,16,31.6,35.6,31.6V180L32,180L32,180z"/>
<path style="fill:#CB5A30;" d="M121.2,285.6c0-0.4,0-0.4,0-0.8v-31.6v-39.6c0-0.4,0-0.4,0-0.8s0-0.4,0-0.8v-6.8
	c0-16-12.4-25.6-28.8-25.6H38v6V326h54.4c17.2,0,28.8-18.4,28.8-33.6V285.6C121.2,286,121.2,285.6,121.2,285.6z"/>
<path d="M471.2,332.4h-54.8c-18.8,0-36.8-19.2-36.8-39.6v-2c-84,12.8-168.8,12.8-252.8,0v2c0,18.8-14.4,39.6-34.8,39.6H36.8
	C18,332.4,0,313.2,0,292.8v-87.2C0,187.2,15.2,174,36.8,174H92c20.8,0,34.8,12.8,34.8,31.6v2c84-12.8,168.8-12.8,252.8,0v-2
	c0-18.4,15.6-31.6,36.8-31.6h54.8c9.6,0,18.4,2.8,24.8,8c6.8,5.6,10.4,14,10.4,23.2v87.2C506.4,311.6,492,332.4,471.2,332.4z
	 M384,282.4c0.8,0,2,0.4,2.4,0.8c0.8,0.8,1.6,2,1.6,3.2v6.8c0,16,14,31.6,28.8,31.6h54.8c15.6,0,27.2-16.4,27.2-31.6V206
	c0-7.2-2.8-13.2-7.6-17.2c-4.8-4-11.6-6.4-19.6-6.4h-55.2c-13.6,0-28.8,7.2-28.8,23.6v6.8c0,1.2-0.4,2.4-1.6,3.2
	c-0.8,0.8-2,1.2-3.2,0.8c-86-13.6-173.6-13.6-259.6,0c-1.2,0-2.4,0-3.2-0.8s-1.6-2-1.6-3.2V206c0-14.4-10.4-23.6-26.8-23.6H36.4
	c-13.6,0-28.8,7.2-28.8,23.6v87.2c0,16,14,31.6,28.8,31.6h55.2c15.2,0,26.8-16.4,26.8-31.6v-6.8c0-1.2,0.4-2.4,1.6-3.2
	c0.8-0.8,2-1.2,3.2-0.8c86,13.6,173.6,13.6,259.6,0C383.6,282.4,383.6,282.4,384,282.4z"/>
<path d="M122.8,290.8c-2.4,0-4-1.6-4-4v-31.6c0-2.4,1.6-4,4-4s4,1.6,4,4v31.6C126.8,289.2,125.2,290.8,122.8,290.8z"/>
<path d="M122.8,227.6c-2.4,0-4-1.6-4-4v-8c0-2.4,1.6-4,4-4s4,1.6,4,4v8C126.8,225.6,125.2,227.6,122.8,227.6z"/>
<path d="M384,290.8c-2.4,0-4-1.6-4-4v-31.6c0-2.4,1.6-4,4-4s4,1.6,4,4v31.6C388,289.2,386,290.8,384,290.8z"/>
<path d="M384,227.6c-2.4,0-4-1.6-4-4v-8c0-2.4,1.6-4,4-4s4,1.6,4,4v8C388,225.6,386,227.6,384,227.6z"/>
<path d="M40,330.4c-2.4,0-4-1.6-4-4V223.6c0-2.4,1.6-4,4-4s4,1.6,4,4v102.8C44,328.4,42,330.4,40,330.4z"/>
<path d="M40,192c-2.4,0-4-1.6-4-4v-8c0-2.4,1.6-4,4-4s4,1.6,4,4v8C44,190,42,192,40,192z"/>
<path d="M466.8,330.4c-2.4,0-4-1.6-4-4V223.6c0-2.4,1.6-4,4-4s4,1.6,4,4v102.8C470.8,328.4,469.2,330.4,466.8,330.4z"/>
<path d="M466.8,192c-2.4,0-4-1.6-4-4v-8c0-2.4,1.6-4,4-4s4,1.6,4,4v8C470.8,190,469.2,192,466.8,192z"/>
</svg>